<svg fill="none" height="57" viewBox="0 0 58 57" width="58" xmlns="http://www.w3.org/2000/svg"><path d="m57.0072 28.4953c.002 6.6773-2.3403 13.1433-6.6184 18.2701-1.9465-5.1723-11.1233-9.0655-21.8852-9.0655-10.7618 0-19.93861 3.8932-21.8852 9.0655-2.93344-3.5154-4.97683-7.6859-5.957256-12.1583-.980422-4.4724-.869017-9.1151.324788-13.5354 1.193808-4.4202 3.434878-8.4878 6.533548-11.85855 3.09872-3.37073 6.96372-5.94539 11.26812-7.50609 4.3044-1.560706 8.9215-2.061513 13.4604-1.460043 4.5389.601469 8.8662 2.287513 12.6155 4.915443 3.7494 2.62794 6.8105 6.12044 8.9243 10.18184 2.1138 4.0615 3.2181 8.5724 3.2194 13.151z" fill="#c1ccd6"/><g fill="#84888c"><path d="m28.5037 9.89148c-2.2 0-4.3505.65242-6.1798 1.87462-1.8292 1.2223-3.2549 2.9595-4.0968 4.992s-1.0622 4.2691-.633 6.4268 1.4886 4.1397 3.0442 5.6953c1.5557 1.5557 3.5377 2.6151 5.6954 3.0443s4.3942.2089 6.4268-.633c2.0325-.8419 3.7697-2.2676 4.992-4.0968 1.2222-1.8293 1.8746-3.9799 1.8746-6.1799 0-2.9501-1.1719-5.7793-3.258-7.8654-2.086-2.086-4.9153-3.25792-7.8654-3.25792z"/><path d="m50.3886 46.7654c-2.7231 3.2471-6.1328 5.8495-9.9832 7.6195-3.7313 1.7229-7.7922 2.6151-11.902 2.6151-4.1099 0-8.1707-.8922-11.902-2.6151-3.8504-1.77-7.26014-4.3724-9.98324-7.6195 1.94659-5.1723 11.12334-9.0655 21.88524-9.0655 10.7618 0 19.9386 3.8932 21.8852 9.0655z"/></g></svg>